<?xml version="1.0" encoding="UTF-8" standalone="no"?>
<svg
   xmlns:dc="http://purl.org/dc/elements/1.1/"
   xmlns:cc="http://creativecommons.org/ns#"
   xmlns:rdf="http://www.w3.org/1999/02/22-rdf-syntax-ns#"
   xmlns:svg="http://www.w3.org/2000/svg"
   xmlns="http://www.w3.org/2000/svg"
   xmlns:sodipodi="http://sodipodi.sourceforge.net/DTD/sodipodi-0.dtd"
   xmlns:inkscape="http://www.inkscape.org/namespaces/inkscape"
   viewBox="0 0 16 16"
   version="1.1"
   id="svg4"
   sodipodi:docname="icon-instagram.svg"
   inkscape:version="0.92.3 (2405546, 2018-03-11)">
  <metadata
     id="metadata10">
    <rdf:RDF>
      <cc:Work
         rdf:about="">
        <dc:format>image/svg+xml</dc:format>
        <dc:type
           rdf:resource="http://purl.org/dc/dcmitype/StillImage" />
        <dc:title></dc:title>
      </cc:Work>
    </rdf:RDF>
  </metadata>
  <defs
     id="defs8">
    <linearGradient
       x1="0"
       y1="0"
       x2="1"
       y2="0"
       gradientUnits="userSpaceOnUse"
       gradientTransform="matrix(-10.786716,-9.7720352,9.7720352,-10.786716,-3.9556698,12.46299)"
       spreadMethod="pad"
       id="linearGradient22">
      <stop
         style="stop-opacity:1;stop-color:#fab93a"
         offset="0"
         id="stop14" />
      <stop
         style="stop-opacity:1;stop-color:#d01e64"
         offset="0.3297509"
         id="stop16" />
      <stop
         style="stop-opacity:1;stop-color:#aa2498"
         offset="0.63317311"
         id="stop18" />
      <stop
         style="stop-opacity:1;stop-color:#b3b3b3"
         offset="1"
         id="stop20" />
    </linearGradient>
  </defs>
  <sodipodi:namedview
     pagecolor="#ffffff"
     bordercolor="#666666"
     borderopacity="1"
     objecttolerance="10"
     gridtolerance="10"
     guidetolerance="10"
     inkscape:pageopacity="0"
     inkscape:pageshadow="2"
     inkscape:window-width="1366"
     inkscape:window-height="711"
     id="namedview6"
     showgrid="false"
     inkscape:zoom="14.75"
     inkscape:cx="1.8694448"
     inkscape:cy="1.8433757"
     inkscape:window-x="0"
     inkscape:window-y="0"
     inkscape:window-maximized="1"
     inkscape:current-layer="svg4" />
  <path
     d="M 2.9051767,0.35550779 H 13.09493 c 1.401478,0 2.549563,1.14794441 2.549563,2.54959111 V 13.094932 c 0,1.401562 -1.148085,2.54956 -2.549563,2.54956 H 2.9051767 c -1.4017278,0 -2.5496692,-1.147998 -2.5496692,-2.54956 V 2.9050989 c 0,-1.4016467 1.1479414,-2.54959111 2.5496692,-2.54959111 v 0"
     style="fill:#828282;fill-opacity:1;fill-rule:evenodd;stroke:none;stroke-width:0.00280644"
     id="path24"
     inkscape:connector-curvature="0" />
  <path
     d="m 5.180807,8.0000558 c 0,-1.5564201 1.2628688,-2.8192894 2.8192055,-2.8192894 1.5563366,0 2.8192055,1.2628693 2.8192055,2.8192894 0,1.5563367 -1.2628689,2.8190372 -2.8192055,2.8190372 -1.5563367,0 -2.8192055,-1.2627005 -2.8192055,-2.8190372 z M 10.908209,2.4842873 H 5.0918716 c -1.4337236,0 -2.6075409,1.1738203 -2.6075409,2.60746 v 5.8163377 c 0,1.436137 1.1738173,2.607628 2.6075409,2.607628 h 5.8163374 c 1.436054,0 2.60746,-1.171491 2.60746,-2.607628 V 5.0917472 c 0,-1.4336396 -1.171406,-2.6074599 -2.60746,-2.6074599 z M 5.0918716,3.1362226 h 5.8163374 c 1.0777,0 1.955609,0.8803498 1.955609,1.9555246 v 5.8163378 c 0,1.077699 -0.877909,1.955779 -1.955609,1.955779 H 5.0918716 c -1.0752585,0 -1.9556925,-0.87808 -1.9556925,-1.955779 V 5.0917472 c 0,-1.0751748 0.880434,-1.9555246 1.9556925,-1.9555246 z m 6.3984774,0.8225936 c -0.317605,0 -0.572514,0.2574347 -0.572514,0.5725133 0,0.3175768 0.254909,0.5725695 0.572514,0.5725695 0.315135,0 0.572457,-0.2549927 0.572457,-0.5725695 0,-0.3150786 -0.257322,-0.5725133 -0.572457,-0.5725133 z m 0.06735,4.0412396 c 0,-1.9652635 -1.5924561,-3.5577187 -3.5576905,-3.5577187 -1.9652621,0 -3.5576342,1.5924553 -3.5576342,3.5577187 0,1.9651498 1.5923721,3.5576072 3.5576342,3.5576072 1.9652344,0 3.5576905,-1.5924574 3.5576905,-3.5576072 v 0"
     style="fill:#ffffff;fill-opacity:1;fill-rule:evenodd;stroke:none;stroke-width:0.00280644"
     id="path26"
     inkscape:connector-curvature="0" />
</svg>
